<svg viewBox="0 0 316 405" fill="none" xmlns="http://www.w3.org/2000/svg">
    <path d="M158.579 52.2985L315.719 151.858L158.579 250.651L0.440449 151.858L158.579 52.2985Z" fill="#EC7B00"/>
    <path d="M158.579 52.2985L315.719 151.858L158.579 250.651L0.440449 151.858L158.579 52.2985Z" fill="#EC7B00"/>
    <path fill-rule="evenodd" clip-rule="evenodd" d="M158.575 61.2709L14.7148 151.84L158.555 241.701L301.506 151.828L158.575 61.2709ZM158.579 52.2985L0.440449 151.858L158.579 250.651L315.719 151.858L158.579 52.2985Z" fill="black"/>
    <path d="M158.139 52.2985L314.437 134.243L158.139 228.441L8.98712e-06 151.858L158.139 52.2985Z" fill="white"/>
    <path d="M158.139 52.2985L314.437 134.243L158.139 228.441L8.98712e-06 151.858L158.139 52.2985Z" fill="white"/>
    <path fill-rule="evenodd" clip-rule="evenodd" d="M158.544 61.0129L15.5453 151.04L157.677 219.872L299.043 134.674L158.544 61.0129ZM158.139 52.2985L8.98712e-06 151.858L158.139 228.441L314.437 134.243L158.139 52.2985Z" fill="black"/>
    <path d="M184.565 89.0588C184.565 98.3639 174.401 105.907 161.865 105.907C149.328 105.907 139.165 98.3639 139.165 89.0588C139.165 79.7536 149.328 72.2103 161.865 72.2103C174.401 72.2103 184.565 79.7536 184.565 89.0588Z" fill="black"/>
    <path d="M184.565 138.072C184.565 147.377 174.401 154.921 161.865 154.921C149.328 154.921 139.165 147.377 139.165 138.072C139.165 128.767 149.328 121.224 161.865 121.224C174.401 121.224 184.565 128.767 184.565 138.072Z" fill="black"/>
    <path d="M184.563 187.086C184.563 196.391 174.776 203.934 162.704 203.934C150.631 203.934 140.844 196.391 140.844 187.086C140.844 177.781 150.631 170.237 162.704 170.237C174.776 170.237 184.563 177.781 184.563 187.086Z" fill="black"/>
    <path d="M161.301 247.682V402.067L160.222 403.927L158.066 404.547L156.449 403.927L155.371 402.067V247.682H161.301Z" fill="black"/>
    <path fill-rule="evenodd" clip-rule="evenodd" d="M161.73 247.252H154.94V402.182L156.153 404.274L158.046 405L160.507 404.292L161.73 402.182V247.252ZM160.87 248.112V401.951L159.937 403.561L158.085 404.094L156.745 403.58L155.801 401.951V248.112H160.87Z" fill="black"/>
    <path d="M6.36597 152.268V306.653L5.28781 308.513L3.13151 309.133L1.51428 308.513L0.436131 306.653V152.268H6.36597Z" fill="black"/>
    <path fill-rule="evenodd" clip-rule="evenodd" d="M6.79614 151.837H0.00603676V306.768L1.21841 308.86L3.11203 309.586L5.57315 308.878L6.79614 306.768V151.837ZM5.93587 152.698V306.537L5.00257 308.147L3.15109 308.679L1.81023 308.165L0.866306 306.537V152.698H5.93587Z" fill="black"/>
    <path d="M309.359 152.293H315.289V229.486V306.678L314.21 308.538L312.054 309.158L310.437 308.538L309.359 306.678V152.293Z" fill="black"/>
    <path fill-rule="evenodd" clip-rule="evenodd" d="M315.719 151.863H308.929V306.794L310.141 308.886L312.035 309.612L314.496 308.904L315.719 306.794V151.863ZM314.858 152.724V306.563L313.925 308.173L312.074 308.705L310.733 308.191L309.789 306.563V152.724H314.858Z" fill="black"/>
</svg>